<svg width="22" height="16" viewBox="0 0 22 16" fill="none" xmlns="http://www.w3.org/2000/svg">
<path d="M1.20222 0H20.6957C21.3583 0 21.8979 0.539612 21.8979 1.20222V14.0299C21.8979 14.6925 21.3583 15.2321 20.6957 15.2321H1.20222C0.539612 15.2361 0 14.6965 0 14.0339V1.20222C0 0.539612 0.539612 0 1.20222 0Z" fill="#B22234"/>
<path d="M0.00793548 1.08325H21.8979C21.9019 1.12293 21.9059 1.16261 21.9059 1.20625V2.37277H0V1.20228C0 1.16261 0.00396774 1.12293 0.00793548 1.08325ZM21.9019 3.44009V4.72564H0V3.44009H21.9019ZM21.9019 5.79692V7.08247H0V5.79692H21.9019ZM21.9019 8.15376V9.43931H0V8.15376H21.9019ZM21.9019 10.5106V11.7961H0V10.5106H21.9019ZM21.9019 12.8674V14.03C21.9019 14.0697 21.8979 14.1133 21.894 14.153H0.00793548C0.00396774 14.1173 0 14.0736 0 14.0339V12.8714H21.9019V12.8674Z" fill="white"/>
<path d="M8.25289 0V8.20528H0V1.20222C0 0.539612 0.539612 0 1.20222 0H8.25289Z" fill="#3C3B6E"/>
<path d="M0.487997 1.13477L0.761771 1.98783L0.0396423 1.46012H0.936351L0.210255 1.98783L0.487997 1.13477Z" fill="white"/>
<path d="M0.487997 2.7854L0.761771 3.63846L0.0396423 3.11075H0.936351L0.210255 3.63846L0.487997 2.7854Z" fill="white"/>
<path d="M0.487997 4.43579L0.761771 5.28885L0.0396423 4.76115H0.936351L0.210255 5.28885L0.487997 4.43579Z" fill="white"/>
<path d="M0.487997 6.08667L0.761771 6.93973L0.0396423 6.41202H0.936351L0.210255 6.93973L0.487997 6.08667Z" fill="white"/>
<path d="M1.45618 0.309326L1.73392 1.16239L1.00783 0.634681H1.9085L1.17844 1.16239L1.45618 0.309326Z" fill="white"/>
<path d="M1.45618 1.96021L1.73392 2.81327L1.00783 2.28556H1.9085L1.17844 2.81327L1.45618 1.96021Z" fill="white"/>
<path d="M1.45618 3.61084L1.73392 4.4639L1.00783 3.93619H1.9085L1.17844 4.4639L1.45618 3.61084Z" fill="white"/>
<path d="M1.45618 5.26123L1.73392 6.11429L1.00783 5.58658H1.9085L1.17844 6.11429L1.45618 5.26123Z" fill="white"/>
<path d="M1.45618 6.91162L1.73392 7.76468L1.00783 7.23698H1.9085L1.17844 7.76468L1.45618 6.91162Z" fill="white"/>
<path d="M2.42832 1.13477L2.70606 1.98783L1.97997 1.46012H2.87667L2.15058 1.98783L2.42832 1.13477Z" fill="white"/>
<path d="M2.42832 2.7854L2.70606 3.63846L1.97997 3.11075H2.87667L2.15058 3.63846L2.42832 2.7854Z" fill="white"/>
<path d="M2.42832 4.43579L2.70606 5.28885L1.97997 4.76115H2.87667L2.15058 5.28885L2.42832 4.43579Z" fill="white"/>
<path d="M2.42832 6.08667L2.70606 6.93973L1.97997 6.41202H2.87667L2.15058 6.93973L2.42832 6.08667Z" fill="white"/>
<path d="M3.40035 0.309326L3.67412 1.16239L2.952 0.634681H3.8487L3.12261 1.16239L3.40035 0.309326Z" fill="white"/>
<path d="M3.40035 1.96021L3.67412 2.81327L2.952 2.28556H3.8487L3.12261 2.81327L3.40035 1.96021Z" fill="white"/>
<path d="M3.40035 3.61084L3.67412 4.4639L2.952 3.93619H3.8487L3.12261 4.4639L3.40035 3.61084Z" fill="white"/>
<path d="M3.40035 5.26123L3.67412 6.11429L2.952 5.58658H3.8487L3.12261 6.11429L3.40035 5.26123Z" fill="white"/>
<path d="M3.40035 6.91162L3.67412 7.76468L2.952 7.23698H3.8487L3.12261 7.76468L3.40035 6.91162Z" fill="white"/>
<path d="M4.36854 1.13477L4.64628 1.98783L3.92018 1.46012H4.81689L4.09079 1.98783L4.36854 1.13477Z" fill="white"/>
<path d="M4.36854 2.7854L4.64628 3.63846L3.92018 3.11075H4.81689L4.09079 3.63846L4.36854 2.7854Z" fill="white"/>
<path d="M4.36854 4.43579L4.64628 5.28885L3.92018 4.76115H4.81689L4.09079 5.28885L4.36854 4.43579Z" fill="white"/>
<path d="M4.36854 6.08667L4.64628 6.93973L3.92018 6.41202H4.81689L4.09079 6.93973L4.36854 6.08667Z" fill="white"/>
<path d="M5.34057 0.309326L5.61831 1.16239L4.89221 0.634681H5.78892L5.06282 1.16239L5.34057 0.309326Z" fill="white"/>
<path d="M5.34057 1.96021L5.61831 2.81327L4.89221 2.28556H5.78892L5.06282 2.81327L5.34057 1.96021Z" fill="white"/>
<path d="M5.34057 3.61084L5.61831 4.4639L4.89221 3.93619H5.78892L5.06282 4.4639L5.34057 3.61084Z" fill="white"/>
<path d="M5.34057 5.26123L5.61831 6.11429L4.89221 5.58658H5.78892L5.06282 6.11429L5.34057 5.26123Z" fill="white"/>
<path d="M5.34057 6.91162L5.61831 7.76468L4.89221 7.23698H5.78892L5.06282 7.76468L5.34057 6.91162Z" fill="white"/>
<path d="M6.30864 1.13477L6.58639 1.98783L5.86029 1.46012H6.757L6.03487 1.98783L6.30864 1.13477Z" fill="white"/>
<path d="M6.30864 2.7854L6.58639 3.63846L5.86029 3.11075H6.757L6.03487 3.63846L6.30864 2.7854Z" fill="white"/>
<path d="M6.30864 4.43579L6.58639 5.28885L5.86029 4.76115H6.757L6.03487 5.28885L6.30864 4.43579Z" fill="white"/>
<path d="M6.30864 6.08667L6.58639 6.93973L5.86029 6.41202H6.757L6.03487 6.93973L6.30864 6.08667Z" fill="white"/>
<path d="M7.28078 0.309326L7.55852 1.16239L6.83243 0.634681H7.72914L7.00304 1.16239L7.28078 0.309326Z" fill="white"/>
<path d="M7.28078 1.96021L7.55852 2.81327L6.83243 2.28556H7.72914L7.00304 2.81327L7.28078 1.96021Z" fill="white"/>
<path d="M7.28078 3.61084L7.55852 4.4639L6.83243 3.93619H7.72914L7.00304 4.4639L7.28078 3.61084Z" fill="white"/>
<path d="M7.28078 5.26123L7.55852 6.11429L6.83243 5.58658H7.72914L7.00304 6.11429L7.28078 5.26123Z" fill="white"/>
<path d="M7.28078 6.91162L7.55852 7.76468L6.83243 7.23698H7.72914L7.00304 7.76468L7.28078 6.91162Z" fill="white"/>
</svg>
